<svg width="1200" height="630" viewBox="0 0 1200 630" xmlns="http://www.w3.org/2000/svg">
  <defs>
    <linearGradient id="g" x1="0" y1="0" x2="1" y2="1">
      <stop offset="0%" stop-color="#f5f7fa"/>
      <stop offset="100%" stop-color="#c3cfe2"/>
    </linearGradient>
  </defs>
  <rect width="1200" height="630" fill="url(#g)"/>
  <g transform="translate(120,80)">
    <rect x="0" y="300" width="960" height="18" rx="9" fill="#2d3748" opacity="0.2"/>
    <g transform="translate(0,0)">
      <rect x="60" y="190" width="30" height="150" fill="#f59e0b"/>
      <rect x="150" y="160" width="30" height="180" fill="#f59e0b"/>
      <rect x="240" y="210" width="30" height="130" fill="#f59e0b"/>
      <rect x="330" y="140" width="30" height="200" fill="#f59e0b"/>
      <rect x="420" y="185" width="30" height="155" fill="#f59e0b"/>
      <rect x="510" y="220" width="30" height="120" fill="#f59e0b"/>
      <rect x="600" y="170" width="30" height="170" fill="#f59e0b"/>
      <rect x="690" y="200" width="30" height="140" fill="#f59e0b"/>
      <rect x="780" y="150" width="30" height="190" fill="#f59e0b"/>
    </g>
    <rect x="40" y="330" width="880" height="16" rx="8" fill="#f59e0b"/>
    <rect x="40" y="350" width="880" height="16" rx="8" fill="#f59e0b"/>
  </g>
  <g text-anchor="middle" font-family="Arial, Helvetica, sans-serif">
    <text x="600" y="430" font-size="64" fill="#111827" font-weight="700">Sitio en construcción</text>
    <text x="600" y="480" font-size="28" fill="#374151">Estamos preparando algo increíble. Vuelve pronto.</text>
  </g>
</svg>